<svg width="184.6" height="148.201" viewBox="0 0 184.6 148.201" xmlns="http://www.w3.org/2000/svg"><g id="svgGroup" stroke-linecap="round" fill-rule="evenodd" font-size="9pt" stroke="#515052" stroke-width="0.25mm" fill="#c314e6" style="stroke:#515052;stroke-width:0.25mm;fill:#c314e6"><path d="M 67.6 37.2 L 67.4 37.2 A 4.456 4.456 0 0 1 66.611 37.137 Q 65.2 36.881 65.2 35.6 A 1.491 1.491 0 0 1 66.002 34.218 Q 66.588 33.885 67.6 33.8 A 23.424 23.424 0 0 0 74.188 32.081 A 32.397 32.397 0 0 0 79.4 29.3 A 51.11 51.11 0 0 0 87.319 22.898 A 61.896 61.896 0 0 0 90.7 19.3 Q 96 13.2 99.2 6 A 1.645 1.645 0 0 1 99.636 5.404 Q 100.319 4.781 101.9 4.3 Q 104.2 3.6 106.6 3.6 A 13.792 13.792 0 0 1 108.553 3.732 A 10.167 10.167 0 0 1 110.5 4.2 A 3.93 3.93 0 0 1 111.036 4.431 Q 112.129 5.013 111.8 6 Q 103.8 25.4 96.3 45.4 Q 88.8 65.4 79.4 84.8 Q 83.4 79.8 87.7 74.9 Q 92 70 97.4 64.4 L 97.4 61.8 L 97.4 59 Q 97.4 57.8 97.6 56.6 A 13.437 13.437 0 0 1 97.948 55.812 Q 98.142 55.404 98.388 54.945 A 30.244 30.244 0 0 1 98.8 54.2 Q 99.373 53.197 99.947 52.912 A 1.013 1.013 0 0 1 100.4 52.8 A 0.629 0.629 0 0 1 100.846 53.017 Q 101.269 53.446 101.627 54.72 A 14.9 14.9 0 0 1 101.8 55.4 A 10.828 10.828 0 0 0 101.819 56.059 Q 101.837 56.361 101.874 56.627 A 5.989 5.989 0 0 0 101.9 56.8 A 13.622 13.622 0 0 0 101.989 57.278 Q 102.043 57.542 102.112 57.836 A 25.504 25.504 0 0 0 102.2 58.2 L 102.6 57.8 A 51.817 51.817 0 0 1 103.66 56.776 Q 105.154 55.366 107.725 53.081 A 461.448 461.448 0 0 1 109.4 51.6 A 2008.126 2008.126 0 0 1 113.417 48.075 Q 115.202 46.513 117.173 44.794 A 3727.392 3727.392 0 0 1 121.3 41.2 A 783.772 783.772 0 0 1 132.044 32.031 A 878.444 878.444 0 0 1 135.8 28.9 Q 143.4 22.6 150.2 16.9 Q 157 11.2 162 7.4 A 192.867 192.867 0 0 1 163.756 6.081 Q 167.3 3.45 168.6 2.8 A 30.075 30.075 0 0 1 171.042 1.628 Q 172.655 0.947 174.1 0.6 Q 176.008 0.142 177.508 0.034 A 12.386 12.386 0 0 1 178.4 0 A 12.547 12.547 0 0 1 180.066 0.103 Q 182.022 0.366 183.1 1.3 A 4.672 4.672 0 0 1 184.057 2.415 A 3.776 3.776 0 0 1 184.6 4.4 Q 184.6 7.478 181.237 9.679 A 14.545 14.545 0 0 1 180 10.4 Q 175.875 12.325 170.71 15.148 A 278.639 278.639 0 0 0 165.8 17.9 Q 157.6 22.6 148.6 28.3 Q 139.6 34 131 40.1 A 349.147 349.147 0 0 0 120.797 47.608 A 286.407 286.407 0 0 0 115.2 52 Q 109.688 56.441 105.816 60.295 A 70.201 70.201 0 0 0 103.6 62.6 Q 105.897 70.716 108.077 77.073 A 174.58 174.58 0 0 0 109.4 80.8 Q 112.2 88.4 116.3 95.3 A 107.621 107.621 0 0 0 119.755 100.714 Q 122.95 105.425 127.2 110.8 A 54.727 54.727 0 0 0 131.557 115.379 Q 134.05 117.7 136.6 119.4 A 25.487 25.487 0 0 0 139.502 121.088 Q 142.588 122.6 145.2 122.6 A 12.079 12.079 0 0 0 146.814 122.5 Q 148.604 122.258 149.57 121.428 A 3.163 3.163 0 0 0 149.9 121.1 A 5.285 5.285 0 0 0 151.168 118.071 A 6.931 6.931 0 0 0 151.2 117.4 Q 151.2 114.6 149.8 111.6 Q 148.4 108.6 147 106.6 Q 146.165 105.264 146.027 104.625 A 1.08 1.08 0 0 1 146 104.4 Q 146 103.679 146.814 103.608 A 2.155 2.155 0 0 1 147 103.6 A 4.627 4.627 0 0 1 149.363 104.269 Q 150.005 104.643 150.624 105.229 A 8.872 8.872 0 0 1 150.8 105.4 A 5.607 5.607 0 0 1 151.325 106.025 Q 152.212 107.224 153.5 109.8 A 20.295 20.295 0 0 1 154.468 112.043 Q 154.88 113.197 155.06 114.241 A 9.175 9.175 0 0 1 155.2 115.8 A 9.249 9.249 0 0 1 152.487 122.512 A 11.011 11.011 0 0 1 152.4 122.6 Q 149.6 125.4 146 126.7 A 27.436 27.436 0 0 1 143.643 127.44 Q 142.441 127.755 141.375 127.893 A 12.307 12.307 0 0 1 139.8 128 A 27.597 27.597 0 0 1 129.198 125.995 A 26.149 26.149 0 0 1 123.3 122.6 A 43.416 43.416 0 0 1 113.898 112.659 A 52.84 52.84 0 0 1 111.3 108.5 A 95.787 95.787 0 0 1 104.242 92.68 A 108.482 108.482 0 0 1 103.2 89.5 A 177.272 177.272 0 0 1 98.924 73.093 A 157.629 157.629 0 0 1 98.2 69.4 Q 89.6 79.4 81.2 89.6 Q 72.8 99.8 67.6 106.8 Q 63.8 113.2 58.6 120.4 Q 53.4 127.6 47.1 133.9 A 60.954 60.954 0 0 1 35.813 142.86 A 55.908 55.908 0 0 1 33.5 144.2 Q 26.2 148.2 17.8 148.2 A 20.98 20.98 0 0 1 11.509 147.286 A 18.18 18.18 0 0 1 6.9 145.1 Q 2.2 142 0.2 135.8 Q 0.2 135.4 0.1 135 Q 0 134.6 0 134.2 A 8.239 8.239 0 0 1 0.066 133.129 Q 0.138 132.578 0.29 132.106 A 4.68 4.68 0 0 1 0.4 131.8 Q 0.8 130.8 1.4 130.8 A 1.182 1.182 0 0 1 2.264 131.219 Q 3.066 132.062 3.6 134.6 Q 5.282 138.806 8.38 140.536 A 8.934 8.934 0 0 0 9.6 141.1 A 23.319 23.319 0 0 0 14.991 142.389 A 29.893 29.893 0 0 0 18.6 142.6 Q 20.2 142.6 21.8 142.4 A 20.882 20.882 0 0 0 23.906 142.031 A 17.939 17.939 0 0 0 24.8 141.8 A 41.682 41.682 0 0 0 36.912 135.638 A 52.261 52.261 0 0 0 41.7 131.7 A 88.142 88.142 0 0 0 51.145 121.403 A 108.838 108.838 0 0 0 56.4 114.1 A 183.962 183.962 0 0 0 67.458 94.85 A 204.051 204.051 0 0 0 68.9 91.9 Q 74.6 80 79.2 67.9 A 498.13 498.13 0 0 0 84.52 53.244 A 413.911 413.911 0 0 0 87.3 44.9 A 1394.054 1394.054 0 0 0 89.77 37.133 Q 90.735 34.067 91.593 31.283 A 749.223 749.223 0 0 0 93.2 26 Q 87.6 31.2 80.6 33.8 A 71.451 71.451 0 0 1 74.053 35.897 A 52.056 52.056 0 0 1 67.6 37.2 Z" vector-effect="non-scaling-stroke"/></g></svg>