<svg width="640" height="75.201" viewBox="0 0 640 75.201" xmlns="http://www.w3.org/2000/svg"><g id="svgGroup" stroke-linecap="round" fill-rule="evenodd" font-size="9pt" stroke="#525050" stroke-width="0.25mm" fill="#525050" style="stroke:#525050;stroke-width:0.25mm;fill:#525050"><path d="M 50.1 68.4 L 43.5 75.2 L 9.5 41.8 L 9.5 74 L 0 74 L 0 4 L 9.5 4 L 9.5 35.9 L 39.3 3.7 L 45.7 9.6 L 18.4 38 L 50.1 68.4 Z M 68.1 74 L 59.1 74 L 59.1 0 L 68.1 0 L 68.1 30.3 Q 70.9 26.2 75.2 23.5 A 17.572 17.572 0 0 1 82.325 20.991 A 22.595 22.595 0 0 1 85.3 20.8 A 23.225 23.225 0 0 1 90.365 21.318 Q 95.459 22.456 98.45 26.1 Q 102.575 31.126 102.788 39.209 A 33.764 33.764 0 0 1 102.8 40.1 L 102.8 74 L 93.8 74 L 93.8 41.1 Q 93.8 35.5 91.2 32.1 A 8.42 8.42 0 0 0 85.042 28.753 A 11.979 11.979 0 0 0 83.9 28.7 A 13.23 13.23 0 0 0 77.187 30.566 A 17.586 17.586 0 0 0 75.15 31.95 Q 71 35.2 68.1 39.6 L 68.1 74 Z M 234.5 74 L 225.5 74 L 225.5 0 L 234.5 0 L 234.5 30.3 Q 237.3 26.2 241.6 23.5 A 17.572 17.572 0 0 1 248.725 20.991 A 22.595 22.595 0 0 1 251.7 20.8 A 23.225 23.225 0 0 1 256.765 21.318 Q 261.859 22.456 264.85 26.1 Q 268.975 31.126 269.188 39.209 A 33.764 33.764 0 0 1 269.2 40.1 L 269.2 74 L 260.2 74 L 260.2 41.1 Q 260.2 35.5 257.6 32.1 A 8.42 8.42 0 0 0 251.442 28.753 A 11.979 11.979 0 0 0 250.3 28.7 A 13.23 13.23 0 0 0 243.587 30.566 A 17.586 17.586 0 0 0 241.55 31.95 Q 237.4 35.2 234.5 39.6 L 234.5 74 Z M 395.5 74 L 386.5 74 L 386.5 0 L 395.5 0 L 395.5 30.3 Q 398.3 26.2 402.6 23.5 A 17.572 17.572 0 0 1 409.725 20.991 A 22.595 22.595 0 0 1 412.7 20.8 A 23.225 23.225 0 0 1 417.765 21.318 Q 422.859 22.456 425.85 26.1 Q 429.975 31.126 430.188 39.209 A 33.764 33.764 0 0 1 430.2 40.1 L 430.2 74 L 421.2 74 L 421.2 41.1 Q 421.2 35.5 418.6 32.1 A 8.42 8.42 0 0 0 412.442 28.753 A 11.979 11.979 0 0 0 411.3 28.7 A 13.23 13.23 0 0 0 404.587 30.566 A 17.586 17.586 0 0 0 402.55 31.95 Q 398.4 35.2 395.5 39.6 L 395.5 74 Z M 548.2 69 L 542 75 L 515.1 47.3 L 515.1 74 L 506.1 74 L 506.1 0 L 515.1 0 L 515.1 42.3 L 538.6 21 L 543.8 26.7 L 523.7 44.5 L 548.2 69 Z M 117.8 55.8 L 117.8 22 L 126.8 22 L 126.8 54.6 A 22.981 22.981 0 0 0 127.054 58.134 Q 127.342 59.981 127.957 61.469 A 10.136 10.136 0 0 0 129.4 63.95 A 8.404 8.404 0 0 0 134.513 66.971 A 12.807 12.807 0 0 0 137 67.2 Q 141.1 67.2 144.95 65.55 Q 148.8 63.9 151.8 61.1 L 151.8 22 L 160.8 22 L 160.8 60.5 A 15.602 15.602 0 0 0 160.902 62.354 Q 161.234 65.116 162.65 66.15 Q 164.5 67.5 166.7 67.5 L 164.8 74.5 Q 155.5 74.5 153.3 67.1 Q 149.8 70.7 145.2 72.95 Q 140.6 75.2 135.3 75.2 Q 130.8 75.2 126.8 73.3 A 14.441 14.441 0 0 1 121.29 68.661 A 18.266 18.266 0 0 1 120.3 67.15 A 16.24 16.24 0 0 1 118.636 63.057 Q 117.8 59.905 117.8 55.8 Z M 445.2 55.8 L 445.2 22 L 454.2 22 L 454.2 54.6 A 22.981 22.981 0 0 0 454.454 58.134 Q 454.742 59.981 455.357 61.469 A 10.136 10.136 0 0 0 456.8 63.95 A 8.404 8.404 0 0 0 461.913 66.971 A 12.807 12.807 0 0 0 464.4 67.2 Q 468.5 67.2 472.35 65.55 Q 476.2 63.9 479.2 61.1 L 479.2 22 L 488.2 22 L 488.2 60.5 A 15.602 15.602 0 0 0 488.302 62.354 Q 488.634 65.116 490.05 66.15 Q 491.9 67.5 494.1 67.5 L 492.2 74.5 Q 482.9 74.5 480.7 67.1 Q 477.2 70.7 472.6 72.95 Q 468 75.2 462.7 75.2 Q 458.2 75.2 454.2 73.3 A 14.441 14.441 0 0 1 448.69 68.661 A 18.266 18.266 0 0 1 447.7 67.15 A 16.24 16.24 0 0 1 446.036 63.057 Q 445.2 59.905 445.2 55.8 Z M 174.2 69.8 L 178 62.3 A 18.557 18.557 0 0 0 181.144 64.426 Q 182.698 65.27 184.55 65.95 A 24.073 24.073 0 0 0 192.161 67.387 A 27.464 27.464 0 0 0 193 67.4 Q 198.392 67.4 201.235 65.685 A 7.738 7.738 0 0 0 201.45 65.55 Q 204.3 63.7 204.3 60.8 A 7.123 7.123 0 0 0 203.986 58.653 A 6.212 6.212 0 0 0 203.25 57.1 A 6.384 6.384 0 0 0 202.321 56.006 Q 201.307 55.034 199.634 54.081 A 22.3 22.3 0 0 0 199.4 53.95 A 28.462 28.462 0 0 0 197.406 52.957 Q 195.29 51.995 192.301 50.946 A 103.602 103.602 0 0 0 191.3 50.6 A 46.616 46.616 0 0 1 186.902 48.857 Q 184.788 47.883 183.112 46.795 A 19.335 19.335 0 0 1 180.35 44.65 A 11.324 11.324 0 0 1 177.056 38.654 A 16.794 16.794 0 0 1 176.7 35.1 Q 176.7 29.1 181.95 24.95 Q 186.354 21.469 193.608 20.908 A 37.527 37.527 0 0 1 196.5 20.8 A 40.794 40.794 0 0 1 200.946 21.031 Q 203.254 21.284 205.27 21.815 A 25.234 25.234 0 0 1 205.4 21.85 Q 209.3 22.9 212.4 24.5 L 209.9 31.9 Q 207.2 30.3 203.75 29.3 A 25.024 25.024 0 0 0 199.267 28.453 A 31.837 31.837 0 0 0 196.1 28.3 A 20.632 20.632 0 0 0 193.163 28.495 Q 190.077 28.94 188.2 30.4 A 9.322 9.322 0 0 0 186.842 31.673 Q 186.14 32.492 185.805 33.365 A 4.529 4.529 0 0 0 185.5 35 A 4.921 4.921 0 0 0 186.995 38.552 A 7.082 7.082 0 0 0 187.6 39.1 Q 189.665 40.772 195.598 42.734 A 84.459 84.459 0 0 0 195.8 42.8 A 67.753 67.753 0 0 1 200.862 44.698 Q 206.789 47.217 209.6 50.1 Q 213.5 54.1 213.5 60.1 Q 213.5 66.848 208.249 70.855 A 16.618 16.618 0 0 1 207.85 71.15 Q 203.11 74.547 195.662 75.095 A 40.423 40.423 0 0 1 192.7 75.2 Q 186.8 75.2 182.05 73.7 A 30.883 30.883 0 0 1 178.21 72.215 Q 176.229 71.284 174.648 70.136 A 18.229 18.229 0 0 1 174.2 69.8 Z M 335.2 69.8 L 339 62.3 A 18.557 18.557 0 0 0 342.144 64.426 Q 343.698 65.27 345.55 65.95 A 24.073 24.073 0 0 0 353.161 67.387 A 27.464 27.464 0 0 0 354 67.4 Q 359.392 67.4 362.235 65.685 A 7.738 7.738 0 0 0 362.45 65.55 Q 365.3 63.7 365.3 60.8 A 7.123 7.123 0 0 0 364.986 58.653 A 6.212 6.212 0 0 0 364.25 57.1 A 6.384 6.384 0 0 0 363.321 56.006 Q 362.307 55.034 360.634 54.081 A 22.3 22.3 0 0 0 360.4 53.95 A 28.462 28.462 0 0 0 358.406 52.957 Q 356.29 51.995 353.301 50.946 A 103.602 103.602 0 0 0 352.3 50.6 A 46.616 46.616 0 0 1 347.902 48.857 Q 345.788 47.883 344.112 46.795 A 19.335 19.335 0 0 1 341.35 44.65 A 11.324 11.324 0 0 1 338.056 38.654 A 16.794 16.794 0 0 1 337.7 35.1 Q 337.7 29.1 342.95 24.95 Q 347.354 21.469 354.608 20.908 A 37.527 37.527 0 0 1 357.5 20.8 A 40.794 40.794 0 0 1 361.946 21.031 Q 364.254 21.284 366.27 21.815 A 25.234 25.234 0 0 1 366.4 21.85 Q 370.3 22.9 373.4 24.5 L 370.9 31.9 Q 368.2 30.3 364.75 29.3 A 25.024 25.024 0 0 0 360.267 28.453 A 31.837 31.837 0 0 0 357.1 28.3 A 20.632 20.632 0 0 0 354.163 28.495 Q 351.077 28.94 349.2 30.4 A 9.322 9.322 0 0 0 347.842 31.673 Q 347.14 32.492 346.805 33.365 A 4.529 4.529 0 0 0 346.5 35 A 4.921 4.921 0 0 0 347.995 38.552 A 7.082 7.082 0 0 0 348.6 39.1 Q 350.665 40.772 356.598 42.734 A 84.459 84.459 0 0 0 356.8 42.8 A 67.753 67.753 0 0 1 361.862 44.698 Q 367.789 47.217 370.6 50.1 Q 374.5 54.1 374.5 60.1 Q 374.5 66.848 369.249 70.855 A 16.618 16.618 0 0 1 368.85 71.15 Q 364.11 74.547 356.662 75.095 A 40.423 40.423 0 0 1 353.7 75.2 Q 347.8 75.2 343.05 73.7 A 30.883 30.883 0 0 1 339.21 72.215 Q 337.229 71.284 335.648 70.136 A 18.229 18.229 0 0 1 335.2 69.8 Z M 625.9 26.2 L 625.9 22 L 634.1 22 L 634.1 61.4 A 12.15 12.15 0 0 0 634.202 63.036 Q 634.534 65.47 635.95 66.35 Q 637.8 67.5 640 67.5 L 638.1 74.5 A 17.722 17.722 0 0 1 633.835 74.028 Q 628.198 72.628 626.603 67.08 A 13.59 13.59 0 0 1 626.5 66.7 A 21.307 21.307 0 0 1 623.39 70.126 A 28.498 28.498 0 0 1 620.25 72.55 Q 616.3 75.2 610.2 75.2 Q 603.7 75.2 598.4 71.9 A 22.947 22.947 0 0 1 590.987 64.373 A 27.923 27.923 0 0 1 589.95 62.55 A 27.228 27.228 0 0 1 587.32 54.608 A 36.644 36.644 0 0 1 586.8 48.3 A 33.142 33.142 0 0 1 587.797 40.031 A 27.968 27.968 0 0 1 589.95 34.3 Q 593.1 28.1 598.65 24.45 A 22.297 22.297 0 0 1 609.845 20.844 A 27.388 27.388 0 0 1 611.4 20.8 A 22.584 22.584 0 0 1 616.194 21.29 A 18.703 18.703 0 0 1 619.55 22.35 A 26.002 26.002 0 0 1 623.837 24.644 A 22.103 22.103 0 0 1 625.9 26.2 Z M 556.7 57.7 L 556.7 0 L 565.7 0 L 565.7 56.8 A 20.644 20.644 0 0 0 565.888 59.688 Q 566.35 62.952 567.95 64.8 A 7.363 7.363 0 0 0 572.534 67.276 A 10.724 10.724 0 0 0 574.2 67.4 Q 576.1 67.4 577.95 66.95 A 22.192 22.192 0 0 0 579.413 66.544 Q 580.348 66.247 581.1 65.9 L 583.3 73.2 Q 581.901 73.822 579.988 74.323 A 34.978 34.978 0 0 1 578.85 74.6 A 23.816 23.816 0 0 1 575.695 75.085 A 30.514 30.514 0 0 1 573 75.2 A 20.862 20.862 0 0 1 568.11 74.646 A 17.544 17.544 0 0 1 564.7 73.45 A 12.683 12.683 0 0 1 559.375 68.685 A 15.856 15.856 0 0 1 558.85 67.8 Q 557.116 64.654 556.78 60.012 A 32.105 32.105 0 0 1 556.7 57.7 Z M 293.7 74 L 284.7 74 L 284.7 22 L 293.7 22 L 293.7 74 Z M 625.1 60.7 L 625.1 32.8 Q 622.4 30.9 619.15 29.75 Q 615.9 28.6 612.3 28.6 A 15.924 15.924 0 0 0 607.329 29.354 A 14.024 14.024 0 0 0 603.85 31.05 A 16.301 16.301 0 0 0 598.831 36.474 A 19.962 19.962 0 0 0 598.1 37.85 A 20.663 20.663 0 0 0 596.347 43.527 A 27.678 27.678 0 0 0 596 48 Q 596 53.6 598.1 57.95 A 17.602 17.602 0 0 0 601.206 62.496 A 15.697 15.697 0 0 0 603.9 64.75 Q 607.6 67.2 612.2 67.2 Q 616 67.2 619.4 65.35 Q 622.8 63.5 625.1 60.7 Z M 284.837 11.288 A 5.973 5.973 0 0 0 289.2 13.1 A 8.175 8.175 0 0 0 290.696 12.969 A 5.647 5.647 0 0 0 293.8 11.35 Q 295.5 9.6 295.5 6.8 A 7.26 7.26 0 0 0 295.5 6.719 A 6.06 6.06 0 0 0 293.65 2.35 A 7.395 7.395 0 0 0 293.592 2.293 A 6.059 6.059 0 0 0 289.2 0.5 A 8.264 8.264 0 0 0 287.544 0.658 A 5.661 5.661 0 0 0 284.6 2.2 A 5.588 5.588 0 0 0 283.129 4.832 A 7.987 7.987 0 0 0 282.9 6.8 A 5.992 5.992 0 0 0 283.392 9.219 A 6.643 6.643 0 0 0 284.75 11.2 A 7.466 7.466 0 0 0 284.837 11.288 Z" vector-effect="non-scaling-stroke"/></g></svg>